<svg width="96" height="100" viewBox="0 0 96 100" fill="none" xmlns="http://www.w3.org/2000/svg">
<path d="M59.4792 80.6667C59.4814 79.8142 59.821 78.9973 60.4237 78.3946C61.0265 77.7918 61.8434 77.4522 62.6958 77.45H75.6167C76.4691 77.4522 77.286 77.7918 77.8888 78.3946C78.4915 78.9973 78.8311 79.8142 78.8333 80.6667C78.8311 81.5191 78.4915 82.336 77.8888 82.9388C77.286 83.5415 76.4691 83.8811 75.6167 83.8833H62.6958C61.8434 83.8811 61.0265 83.5415 60.4237 82.9388C59.821 82.336 59.4814 81.5191 59.4792 80.6667ZM33.7542 80.6667C33.752 81.5191 33.4124 82.336 32.8096 82.9388C32.2068 83.5415 31.3899 83.8811 30.5375 83.8833H17.6167C16.7642 83.8811 15.9473 83.5415 15.3446 82.9388C14.7418 82.336 14.4022 81.5191 14.4 80.6667C14.4022 79.8142 14.7418 78.9973 15.3446 78.3946C15.9473 77.7918 16.7642 77.4522 17.6167 77.45H30.5375C31.3899 77.4522 32.2068 77.7918 32.8096 78.3946C33.4124 78.9973 33.752 79.8142 33.7542 80.6667ZM18.1667 9.375H75.3625C77.4417 9.375 79.125 11.0583 79.125 13.1375L77.2 56.2583V56.2625C77.2 57.2604 76.8036 58.2174 76.098 58.923C75.3924 59.6286 74.4354 60.025 73.4375 60.025H20.1042C19.1063 60.025 18.1493 59.6286 17.4437 58.923C16.7381 58.2174 16.3417 57.2604 16.3417 56.2625V56.2583L14.4167 13.1375C14.4167 11.0583 16.1042 9.375 18.1833 9.375H18.1667ZM91.8542 17.475H85.475V4.37916C85.4728 3.22245 85.0126 2.11368 84.1951 1.29536C83.3776 0.477051 82.2692 0.0157998 81.1125 0.0124969H12.4458C11.2906 0.0168933 10.1839 0.478056 9.36741 1.29535C8.5509 2.11265 8.09079 3.21972 8.0875 4.375V17.4708H1.94583C1.43563 17.4719 0.946637 17.6751 0.585868 18.0359C0.225098 18.3966 0.0219328 18.8856 0.0208321 19.3958V35.3375C0.0208321 36.4 0.883332 37.2583 1.94583 37.2625H8.0875V99.9917H24.1083V91.6042H69.3792V99.9917H85.4042V88.1625C85.4667 87.8875 85.5042 87.5708 85.5083 87.2458V37.2458H91.8875C92.3977 37.2447 92.8867 37.0416 93.2475 36.6808C93.6082 36.32 93.8114 35.831 93.8125 35.3208V19.3792C93.8114 18.869 93.6082 18.38 93.2475 18.0192C92.8867 17.6584 92.3977 17.4553 91.8875 17.4542L91.8542 17.475Z" fill="white"/>
</svg>
